<svg width="81" height="91" viewBox="0 0 81 91" fill="none" xmlns="http://www.w3.org/2000/svg">
<rect y="4" width="81" height="79" rx="10" fill="#F1294D"/>
<rect y="4" width="81" height="79" rx="10" fill="white"/>
<path d="M58 23.7461C58 25.3867 57.7949 27.2324 57.3848 29.2832C56.9746 31.2884 56.4505 33.3392 55.8125 35.4355C55.2201 37.5319 54.5592 39.5827 53.8301 41.5879C53.1465 43.5475 52.5312 45.3249 51.9844 46.9199C51.6198 47.9225 51.2096 49.1758 50.7539 50.6797C50.3438 52.138 49.8424 53.6875 49.25 55.3281C48.7031 56.9688 48.0879 58.6094 47.4043 60.25C46.7207 61.8906 45.9688 63.3717 45.1484 64.6934C44.3281 65.9694 43.4167 67.0176 42.4141 67.8379C41.457 68.6582 40.4089 69.0684 39.2695 69.0684C38.3125 69.0684 37.3783 68.6354 36.4668 67.7695C35.6009 66.9036 34.7578 65.8099 33.9375 64.4883C33.1628 63.1211 32.4108 61.6172 31.6816 59.9766C30.998 58.2904 30.36 56.6497 29.7676 55.0547C29.2207 53.4596 28.7422 51.9785 28.332 50.6113C27.9674 49.2441 27.694 48.196 27.5117 47.4668C26.6003 43.9121 25.7344 40.3346 24.9141 36.7344C24.0938 33.0885 23.6836 29.4427 23.6836 25.7969C23.6836 24.8854 23.7292 23.9512 23.8203 22.9941C23.9115 21.9915 24.1393 21.0801 24.5039 20.2598C24.8685 19.4395 25.3698 18.7786 26.0078 18.2773C26.6914 17.7305 27.6257 17.457 28.8105 17.457C29.8132 17.457 30.7246 18.0267 31.5449 19.166C32.4108 20.2598 33.1855 21.6953 33.8691 23.4727C34.5527 25.25 35.168 27.2324 35.7148 29.4199C36.3073 31.6074 36.8542 33.7721 37.3555 35.9141C37.8568 38.0104 38.3353 39.9928 38.791 41.8613C39.2467 43.6842 39.7025 45.1426 40.1582 46.2363C40.4316 45.3249 40.819 44.0033 41.3203 42.2715C41.8672 40.4941 42.4824 38.5573 43.166 36.4609C43.8952 34.3646 44.6699 32.2227 45.4902 30.0352C46.3561 27.8021 47.2448 25.7969 48.1562 24.0195C49.1133 22.1966 50.0931 20.7155 51.0957 19.5762C52.0983 18.4368 53.1237 17.8672 54.1719 17.8672C54.9466 17.8672 55.5846 18.0495 56.0859 18.4141C56.5872 18.7786 56.9746 19.2572 57.248 19.8496C57.5215 20.4421 57.7038 21.0801 57.7949 21.7637C57.9316 22.4473 58 23.1081 58 23.7461Z" fill="#F1294D"/>
</svg>
