<svg width="124" height="52" viewBox="0 0 124 52" fill="none" xmlns="http://www.w3.org/2000/svg">
<path d="M20 14.1406C20 15.0781 19.8828 16.1328 19.6484 17.3047C19.4141 18.4505 19.1146 19.6224 18.75 20.8203C18.4115 22.0182 18.0339 23.1901 17.6172 24.3359C17.2266 25.4557 16.875 26.4714 16.5625 27.3828C16.3542 27.9557 16.1198 28.6719 15.8594 29.5312C15.625 30.3646 15.3385 31.25 15 32.1875C14.6875 33.125 14.3359 34.0625 13.9453 35C13.5547 35.9375 13.125 36.7839 12.6562 37.5391C12.1875 38.2682 11.6667 38.8672 11.0938 39.3359C10.5469 39.8047 9.94792 40.0391 9.29688 40.0391C8.75 40.0391 8.21615 39.7917 7.69531 39.2969C7.20052 38.8021 6.71875 38.1771 6.25 37.4219C5.80729 36.6406 5.3776 35.7812 4.96094 34.8438C4.57031 33.8802 4.20573 32.9427 3.86719 32.0312C3.55469 31.1198 3.28125 30.2734 3.04688 29.4922C2.83854 28.7109 2.68229 28.112 2.57812 27.6953C2.05729 25.6641 1.5625 23.6198 1.09375 21.5625C0.625 19.4792 0.390625 17.3958 0.390625 15.3125C0.390625 14.7917 0.416667 14.2578 0.46875 13.7109C0.520833 13.138 0.651042 12.6172 0.859375 12.1484C1.06771 11.6797 1.35417 11.3021 1.71875 11.0156C2.10938 10.7031 2.64323 10.5469 3.32031 10.5469C3.89323 10.5469 4.41406 10.8724 4.88281 11.5234C5.3776 12.1484 5.82031 12.9688 6.21094 13.9844C6.60156 15 6.95312 16.1328 7.26562 17.3828C7.60417 18.6328 7.91667 19.8698 8.20312 21.0938C8.48958 22.2917 8.76302 23.4245 9.02344 24.4922C9.28385 25.5339 9.54427 26.3672 9.80469 26.9922C9.96094 26.4714 10.1823 25.7161 10.4688 24.7266C10.7812 23.7109 11.1328 22.6042 11.5234 21.4062C11.9401 20.2083 12.3828 18.9844 12.8516 17.7344C13.3464 16.4583 13.8542 15.3125 14.375 14.2969C14.9219 13.2552 15.4818 12.4089 16.0547 11.7578C16.6276 11.1068 17.2135 10.7812 17.8125 10.7812C18.2552 10.7812 18.6198 10.8854 18.9062 11.0938C19.1927 11.3021 19.4141 11.5755 19.5703 11.9141C19.7266 12.2526 19.8307 12.6172 19.8828 13.0078C19.9609 13.3984 20 13.776 20 14.1406ZM27.0312 12.7344C27.0312 13.099 26.9271 13.4245 26.7188 13.7109C26.5365 13.9974 26.2891 14.2578 25.9766 14.4922C25.6641 14.7005 25.3255 14.8698 24.9609 15C24.5964 15.1042 24.2578 15.1562 23.9453 15.1562C23.4245 15.1562 22.9688 15.026 22.5781 14.7656C22.1875 14.5052 21.9922 14.1016 21.9922 13.5547C21.9922 13.1641 22.0833 12.8255 22.2656 12.5391C22.474 12.2266 22.7214 11.9792 23.0078 11.7969C23.2943 11.5885 23.6198 11.4323 23.9844 11.3281C24.349 11.224 24.7005 11.1719 25.0391 11.1719C25.5339 11.1719 25.9896 11.2891 26.4062 11.5234C26.8229 11.7578 27.0312 12.1615 27.0312 12.7344ZM27.3438 26.0156C27.3438 26.3802 27.3438 26.7708 27.3438 27.1875C27.3438 27.5781 27.3307 27.9557 27.3047 28.3203C27.2786 28.763 27.2656 29.362 27.2656 30.1172C27.2656 30.8464 27.2396 31.6406 27.1875 32.5C27.1354 33.3594 27.0443 34.2318 26.9141 35.1172C26.8099 36.0026 26.6276 36.8099 26.3672 37.5391C26.1068 38.2682 25.7552 38.8672 25.3125 39.3359C24.8958 39.7786 24.362 40.013 23.7109 40.0391C23.2161 40.0651 22.7995 39.8698 22.4609 39.4531C22.1224 39.0365 21.8359 38.5026 21.6016 37.8516C21.3932 37.1745 21.237 36.4323 21.1328 35.625C21.0286 34.7917 20.9505 33.9974 20.8984 33.2422C20.8464 32.4609 20.8203 31.7448 20.8203 31.0938C20.8203 30.4427 20.8203 29.9609 20.8203 29.6484C20.8203 29.2318 20.8203 28.6458 20.8203 27.8906C20.8203 27.1094 20.8464 26.276 20.8984 25.3906C20.9505 24.5052 21.0417 23.6068 21.1719 22.6953C21.3281 21.7839 21.5365 20.9505 21.7969 20.1953C22.0833 19.4401 22.4479 18.8281 22.8906 18.3594C23.3333 17.8906 23.8932 17.6562 24.5703 17.6562C25.2734 17.6562 25.8073 18.0078 26.1719 18.7109C26.5365 19.4141 26.8099 20.2344 26.9922 21.1719C27.1745 22.1094 27.2786 23.0469 27.3047 23.9844C27.3307 24.8958 27.3438 25.5729 27.3438 26.0156ZM44.6094 25C44.6094 25.1302 44.5964 25.2734 44.5703 25.4297C44.5443 25.5599 44.5052 25.6901 44.4531 25.8203C44.2188 26.4193 43.8542 26.9271 43.3594 27.3438C42.8646 27.7344 42.2786 27.9297 41.6016 27.9297C40.5859 27.9297 39.8958 27.4219 39.5312 26.4062C39.4792 26.276 39.4531 26.1328 39.4531 25.9766C39.4531 25.7943 39.4401 25.612 39.4141 25.4297V24.2969C39.362 23.9323 39.2708 23.6458 39.1406 23.4375C39.0104 23.2292 38.7891 23.125 38.4766 23.125C38.0339 23.125 37.6042 23.4115 37.1875 23.9844C36.7969 24.5312 36.4453 25.1953 36.1328 25.9766C35.8464 26.7318 35.612 27.513 35.4297 28.3203C35.2474 29.1276 35.1562 29.7786 35.1562 30.2734C35.1562 30.6641 35.1823 31.1458 35.2344 31.7188C35.2865 32.2656 35.3906 32.7995 35.5469 33.3203C35.7031 33.8411 35.9115 34.2969 36.1719 34.6875C36.4583 35.0521 36.8229 35.2344 37.2656 35.2344C37.7083 35.2344 38.112 35.1042 38.4766 34.8438C38.8672 34.5573 39.2448 34.2318 39.6094 33.8672C39.9479 33.5547 40.3125 33.2292 40.7031 32.8906C41.1198 32.5521 41.5885 32.3828 42.1094 32.3828C42.7604 32.3828 43.2682 32.6172 43.6328 33.0859C44.0234 33.5547 44.2188 34.0885 44.2188 34.6875C44.2188 35.5729 43.9844 36.4062 43.5156 37.1875C43.0469 37.9427 42.4609 38.6068 41.7578 39.1797C41.0547 39.7266 40.2734 40.1562 39.4141 40.4688C38.5547 40.8073 37.7344 40.9766 36.9531 40.9766C35.5469 40.9766 34.349 40.625 33.3594 39.9219C32.3958 39.2188 31.6146 38.3333 31.0156 37.2656C30.4167 36.1719 29.987 34.987 29.7266 33.7109C29.4661 32.4349 29.3359 31.224 29.3359 30.0781C29.3359 28.75 29.5182 27.3177 29.8828 25.7812C30.2474 24.2188 30.8073 22.7734 31.5625 21.4453C32.3177 20.1172 33.2812 19.0104 34.4531 18.125C35.651 17.2396 37.0703 16.7969 38.7109 16.7969C39.7266 16.7969 40.599 17.0182 41.3281 17.4609C42.0833 17.9036 42.6953 18.4896 43.1641 19.2188C43.6589 19.9219 44.0234 20.7161 44.2578 21.6016C44.5182 22.487 44.6484 23.3594 44.6484 24.2188C44.6484 24.349 44.6484 24.4792 44.6484 24.6094C44.6484 24.7396 44.6354 24.8698 44.6094 25ZM55.8984 41.4062C54.0495 41.4062 52.6042 41.1589 51.5625 40.6641C50.5469 40.1953 49.7786 39.5182 49.2578 38.6328C48.763 37.7474 48.4635 36.6797 48.3594 35.4297C48.2552 34.1797 48.2031 32.7865 48.2031 31.25C48.2031 30.026 48.2422 28.8021 48.3203 27.5781C48.3984 26.3281 48.5156 25 48.6719 23.5938C48.3073 23.5938 48.0208 23.6068 47.8125 23.6328C47.6042 23.6328 47.4349 23.6328 47.3047 23.6328C46.4714 23.6328 45.7552 23.4505 45.1562 23.0859C44.5312 22.7214 44.2188 22.1615 44.2188 21.4062C44.2188 20.9375 44.401 20.5208 44.7656 20.1562C45.1042 19.7917 45.5469 19.4792 46.0938 19.2188C46.6406 18.9583 47.2266 18.75 47.8516 18.5938C48.5026 18.4375 49.1146 18.3333 49.6875 18.2812C49.6875 17.5521 49.7396 16.7448 49.8438 15.8594C49.9479 14.974 50.1302 14.1536 50.3906 13.3984C50.6771 12.6172 51.0547 11.9661 51.5234 11.4453C51.9922 10.9245 52.5911 10.6641 53.3203 10.6641C53.737 10.6641 54.1016 10.7943 54.4141 11.0547C54.7526 11.2891 55.026 11.6016 55.2344 11.9922C55.4427 12.3568 55.599 12.7734 55.7031 13.2422C55.8073 13.7109 55.8594 14.1667 55.8594 14.6094C55.8594 15.1302 55.8203 15.6641 55.7422 16.2109C55.6641 16.7578 55.5208 17.4349 55.3125 18.2422C55.7552 18.1901 56.0547 18.1641 56.2109 18.1641C56.3672 18.138 56.5104 18.125 56.6406 18.125C57.0833 18.125 57.5391 18.1641 58.0078 18.2422C58.5026 18.3203 58.9453 18.4505 59.3359 18.6328C59.7526 18.8151 60.0911 19.0625 60.3516 19.375C60.612 19.6615 60.7422 20.013 60.7422 20.4297C60.7422 20.8984 60.5469 21.3151 60.1562 21.6797C59.7917 22.0443 59.3229 22.3568 58.75 22.6172C58.1771 22.8776 57.5651 23.0859 56.9141 23.2422C56.263 23.3724 55.651 23.4635 55.0781 23.5156C54.9219 24.5833 54.8047 25.5729 54.7266 26.4844C54.6745 27.3698 54.6094 28.2682 54.5312 29.1797C54.4792 29.6224 54.4271 30.0781 54.375 30.5469C54.349 30.9896 54.3359 31.4453 54.3359 31.9141C54.3359 32.2526 54.349 32.6562 54.375 33.125C54.401 33.5677 54.4922 33.9974 54.6484 34.4141C54.8047 34.8307 55.0521 35.1953 55.3906 35.5078C55.7292 35.7943 56.1979 35.9375 56.7969 35.9375C57.1615 35.9375 57.5391 35.9115 57.9297 35.8594C58.3203 35.7812 58.7109 35.7422 59.1016 35.7422C59.7786 35.7422 60.2604 35.9766 60.5469 36.4453C60.8594 36.9141 61.0156 37.513 61.0156 38.2422C61.0156 38.7891 60.8464 39.2708 60.5078 39.6875C60.1953 40.0781 59.7917 40.3906 59.2969 40.625C58.8021 40.8854 58.2422 41.0807 57.6172 41.2109C57.0182 41.3411 56.4453 41.4062 55.8984 41.4062ZM69.2188 41.1328C67.8906 41.1328 66.7318 40.7812 65.7422 40.0781C64.7526 39.375 63.9193 38.4766 63.2422 37.3828C62.5651 36.2891 62.0573 35.0781 61.7188 33.75C61.3802 32.3958 61.2109 31.0677 61.2109 29.7656C61.2109 28.3854 61.3802 26.9661 61.7188 25.5078C62.0573 24.0234 62.5781 22.6823 63.2812 21.4844C63.9844 20.2604 64.8828 19.2708 65.9766 18.5156C67.0703 17.7344 68.3724 17.3438 69.8828 17.3438C71.3411 17.3438 72.5781 17.7474 73.5938 18.5547C74.6354 19.3359 75.4688 20.3255 76.0938 21.5234C76.7188 22.6953 77.1615 23.9844 77.4219 25.3906C77.6823 26.7969 77.7734 28.125 77.6953 29.375C77.6172 30.7552 77.3958 32.1484 77.0312 33.5547C76.6927 34.9609 76.1849 36.224 75.5078 37.3438C74.8307 38.4635 73.9714 39.375 72.9297 40.0781C71.888 40.7812 70.651 41.1328 69.2188 41.1328ZM69.6094 23.4766C69.2188 23.4766 68.8672 23.6849 68.5547 24.1016C68.2682 24.5182 68.0208 25.026 67.8125 25.625C67.6302 26.224 67.487 26.862 67.3828 27.5391C67.2786 28.1901 67.2266 28.763 67.2266 29.2578C67.2266 29.8828 67.2786 30.5599 67.3828 31.2891C67.513 32.0182 67.6823 32.6953 67.8906 33.3203C68.099 33.9193 68.3464 34.4271 68.6328 34.8438C68.9453 35.2344 69.2969 35.4297 69.6875 35.4297C70.1042 35.4297 70.4557 35.2344 70.7422 34.8438C71.0547 34.4531 71.3021 33.9583 71.4844 33.3594C71.6667 32.7604 71.7969 32.1094 71.875 31.4062C71.9531 30.6771 71.9922 30 71.9922 29.375C71.9922 28.8021 71.9401 28.1771 71.8359 27.5C71.7318 26.7969 71.5755 26.1458 71.3672 25.5469C71.1849 24.9479 70.9375 24.4531 70.625 24.0625C70.3385 23.6719 70 23.4766 69.6094 23.4766ZM93.2422 25.3906C92.8776 25.4167 92.5651 25.3906 92.3047 25.3125C92.0443 25.2083 91.7839 25.1042 91.5234 25C91.2891 24.8958 91.0547 24.8047 90.8203 24.7266C90.5859 24.6224 90.3255 24.5833 90.0391 24.6094C89.5182 24.6354 89.0495 24.7786 88.6328 25.0391C88.2422 25.2995 87.8776 25.625 87.5391 26.0156C87.2266 26.4062 86.9531 26.849 86.7188 27.3438C86.4844 27.8125 86.3021 28.2812 86.1719 28.75C86.0938 29.0625 86.0286 29.5443 85.9766 30.1953C85.9505 30.8203 85.9375 31.4974 85.9375 32.2266C85.9115 32.9818 85.8984 33.6979 85.8984 34.375C85.8984 35.0521 85.8724 35.5859 85.8203 35.9766C85.7943 36.3932 85.7292 36.888 85.625 37.4609C85.5208 38.0078 85.3516 38.5286 85.1172 39.0234C84.9089 39.5182 84.6224 39.9349 84.2578 40.2734C83.8932 40.612 83.4245 40.7812 82.8516 40.7812C82.4089 40.7812 82.0182 40.651 81.6797 40.3906C81.3672 40.1302 81.0938 39.7917 80.8594 39.375C80.651 38.9323 80.4688 38.4245 80.3125 37.8516C80.1823 37.2786 80.0781 36.6927 80 36.0938C79.9219 35.4688 79.8568 34.8438 79.8047 34.2188C79.7786 33.5938 79.7526 33.0078 79.7266 32.4609C79.7266 31.888 79.7266 31.3672 79.7266 30.8984C79.7526 30.4297 79.7656 30.0521 79.7656 29.7656C79.7396 28.8542 79.6875 27.9427 79.6094 27.0312C79.5573 26.0938 79.5312 25.1693 79.5312 24.2578C79.5312 23.6849 79.5573 23.0469 79.6094 22.3438C79.6615 21.6406 79.8047 20.9896 80.0391 20.3906C80.2734 19.7656 80.612 19.2448 81.0547 18.8281C81.5234 18.4115 82.1615 18.2031 82.9688 18.2031C83.4115 18.2031 83.7891 18.3464 84.1016 18.6328C84.4141 18.9193 84.6615 19.2708 84.8438 19.6875C85.0521 20.1042 85.2083 20.5469 85.3125 21.0156C85.4167 21.4844 85.4818 21.9141 85.5078 22.3047C86.1328 21.2891 86.8359 20.4688 87.6172 19.8438C88.3984 19.1927 89.4141 18.8411 90.6641 18.7891C91.2891 18.763 91.901 18.8281 92.5 18.9844C93.125 19.1146 93.6849 19.349 94.1797 19.6875C94.7005 20 95.1172 20.4167 95.4297 20.9375C95.7682 21.4583 95.9505 22.0703 95.9766 22.7734C96.0286 23.6068 95.7812 24.2448 95.2344 24.6875C94.6875 25.1302 94.0234 25.3646 93.2422 25.3906ZM103.008 12.7344C103.008 13.099 102.904 13.4245 102.695 13.7109C102.513 13.9974 102.266 14.2578 101.953 14.4922C101.641 14.7005 101.302 14.8698 100.938 15C100.573 15.1042 100.234 15.1562 99.9219 15.1562C99.401 15.1562 98.9453 15.026 98.5547 14.7656C98.1641 14.5052 97.9688 14.1016 97.9688 13.5547C97.9688 13.1641 98.0599 12.8255 98.2422 12.5391C98.4505 12.2266 98.6979 11.9792 98.9844 11.7969C99.2708 11.5885 99.5964 11.4323 99.9609 11.3281C100.326 11.224 100.677 11.1719 101.016 11.1719C101.51 11.1719 101.966 11.2891 102.383 11.5234C102.799 11.7578 103.008 12.1615 103.008 12.7344ZM103.32 26.0156C103.32 26.3802 103.32 26.7708 103.32 27.1875C103.32 27.5781 103.307 27.9557 103.281 28.3203C103.255 28.763 103.242 29.362 103.242 30.1172C103.242 30.8464 103.216 31.6406 103.164 32.5C103.112 33.3594 103.021 34.2318 102.891 35.1172C102.786 36.0026 102.604 36.8099 102.344 37.5391C102.083 38.2682 101.732 38.8672 101.289 39.3359C100.872 39.7786 100.339 40.013 99.6875 40.0391C99.1927 40.0651 98.776 39.8698 98.4375 39.4531C98.099 39.0365 97.8125 38.5026 97.5781 37.8516C97.3698 37.1745 97.2135 36.4323 97.1094 35.625C97.0052 34.7917 96.9271 33.9974 96.875 33.2422C96.8229 32.4609 96.7969 31.7448 96.7969 31.0938C96.7969 30.4427 96.7969 29.9609 96.7969 29.6484C96.7969 29.2318 96.7969 28.6458 96.7969 27.8906C96.7969 27.1094 96.8229 26.276 96.875 25.3906C96.9271 24.5052 97.0182 23.6068 97.1484 22.6953C97.3047 21.7839 97.513 20.9505 97.7734 20.1953C98.0599 19.4401 98.4245 18.8281 98.8672 18.3594C99.3099 17.8906 99.8698 17.6562 100.547 17.6562C101.25 17.6562 101.784 18.0078 102.148 18.7109C102.513 19.4141 102.786 20.2344 102.969 21.1719C103.151 22.1094 103.255 23.0469 103.281 23.9844C103.307 24.8958 103.32 25.5729 103.32 26.0156ZM122.695 34.4922C122.695 34.9609 122.669 35.5729 122.617 36.3281C122.591 37.0833 122.487 37.8255 122.305 38.5547C122.122 39.2578 121.836 39.8698 121.445 40.3906C121.055 40.9115 120.508 41.1719 119.805 41.1719C118.841 41.1719 118.099 40.8594 117.578 40.2344C117.057 39.6094 116.81 38.8281 116.836 37.8906C116.003 38.6198 115.052 39.1927 113.984 39.6094C112.943 40.026 111.875 40.2344 110.781 40.2344C110.026 40.2344 109.31 40.0521 108.633 39.6875C107.956 39.3229 107.357 38.8542 106.836 38.2812C106.315 37.7083 105.898 37.0703 105.586 36.3672C105.273 35.638 105.117 34.9219 105.117 34.2188C105.117 32.9688 105.495 31.875 106.25 30.9375C107.031 30 107.982 29.2057 109.102 28.5547C110.221 27.8776 111.406 27.3438 112.656 26.9531C113.932 26.5625 115.065 26.3021 116.055 26.1719C116.055 26.0417 116.055 25.9245 116.055 25.8203C116.081 25.7161 116.094 25.599 116.094 25.4688C116.094 24.6615 115.872 24.0104 115.43 23.5156C114.987 23.0208 114.362 22.7734 113.555 22.7734C112.904 22.7734 112.344 22.8906 111.875 23.125C111.406 23.3333 110.964 23.5807 110.547 23.8672C110.13 24.1276 109.714 24.375 109.297 24.6094C108.88 24.8177 108.411 24.9219 107.891 24.9219C107.318 24.9219 106.823 24.7396 106.406 24.375C106.016 24.0104 105.82 23.5417 105.82 22.9688C105.82 22.1094 106.068 21.3281 106.562 20.625C107.083 19.9219 107.721 19.3359 108.477 18.8672C109.258 18.3724 110.091 17.9948 110.977 17.7344C111.888 17.4479 112.721 17.3047 113.477 17.3047C114.18 17.3047 114.883 17.3958 115.586 17.5781C116.289 17.7344 116.953 17.9948 117.578 18.3594C118.203 18.6979 118.763 19.1276 119.258 19.6484C119.779 20.1432 120.195 20.7292 120.508 21.4062C120.977 22.3698 121.354 23.3984 121.641 24.4922C121.927 25.5599 122.148 26.6667 122.305 27.8125C122.461 28.9323 122.565 30.0651 122.617 31.2109C122.669 32.3307 122.695 33.4245 122.695 34.4922ZM116.445 33.2422L116.328 30.5859C116.276 30.5859 116.224 30.5859 116.172 30.5859C116.12 30.5599 116.068 30.5469 116.016 30.5469C115.677 30.5469 115.247 30.638 114.727 30.8203C114.232 30.9766 113.75 31.2109 113.281 31.5234C112.812 31.8099 112.409 32.1354 112.07 32.5C111.758 32.8646 111.602 33.2422 111.602 33.6328C111.602 33.9974 111.732 34.2448 111.992 34.375C112.253 34.5052 112.552 34.5703 112.891 34.5703C113.464 34.5703 114.076 34.4271 114.727 34.1406C115.378 33.8281 115.951 33.5286 116.445 33.2422Z" fill="#222222"/>
</svg>
